{"title":"You Got Served Beat the World 2011 BRRip Xvid -THC ","uid":6477118,"size":744635109,"categoryP":"video","categoryS":"movies","magnet":"?xt=urn:btih:f40a7298484a4e83cb5bb981e39d4c31287676cf&amp;dn=You+Got+Served+Beat+the+World+2011+BRRip+Xvid+-THC+&amp;tr=udp%3A%2F%2Ftracker.openbittorrent.com%3A80&amp;tr=udp%3A%2F%2Fopen.demonii.com%3A1337&amp;tr=udp%3A%2F%2Ftracker.coppersurfer.tk%3A6969&amp;tr=udp%3A%2F%2Fexodus.desync.com%3A6969","seeders":1,"leechers":1,"uploader":"TPBAgri","files":-1,"time":1308348586,"description":"General \nComplete name : You Got Served Beat the World 2011 BRRip Xvid -THC\\You.Got.Served.Beat.the.World.2011.avi \nFormat : AVI \nFormat/Info : Audio Video Interleave \nFile size : 702 MiB \nDuration : 1h 31mn \nOverall bit rate : 1 074 Kbps \n\nVideo \nID : 0 \nFormat : MPEG-4 Visual \nFormat profile : Advanced Simple@L5 \nFormat settings, BVOP : 2 \nFormat settings, QPel : No \nFormat settings, GMC : No warppoints \nFormat settings, Matrix : Default (H.263) \nCodec ID : XVID \nCodec ID/Hint : XviD \nDuration : 1h 31mn \nBit rate : 940 Kbps \nWidth : 640 pixels \nHeight : 272 pixels \nDisplay aspect ratio : 2.35:1 \nFrame rate : 23.976 fps \nColor space : YUV \nChroma subsampling : 4:2:0 \nBit depth : 8 bits \nScan type : Progressive \nCompression mode : Lossy \nBits/(Pixel*Frame) : 0.225 \nStream size : 614 MiB (88%) \nWriting library : XviD 1.2.1 (UTC 2008-12-04) \n\nAudio \nID : 1 \nFormat : MPEG Audio \nFormat version : Version 1 \nFormat profile : Layer 3 \nMode : Joint stereo \nMode extension : MS Stereo \nCodec ID : 55 \nCodec ID/Hint : MP3 \nDuration : 1h 31mn \nBit rate mode : Constant \nBit rate : 128 Kbps \nChannel(s) : 2 channels \nSampling rate : 48.0 KHz \nCompression mode : Lossy \nStream size : 83.6 MiB (12%) \nAlignment : Aligned on interleaves \nInterleave, duration : 167 ms (4.00 video frames) \nInterleave, preload duration : 216 ms \nTitle : T2_Audio - 5.1 channels \nWriting library : LAME3.98r \nEncoding settings : -m j -V 4 -q 2 -lowpass 17 -b 128 \n","torrent":{"xt":"urn:btih:f40a7298484a4e83cb5bb981e39d4c31287676cf","amp;dn":"You+Got+Served+Beat+the+World+2011+BRRip+Xvid+-THC+","amp;tr":["udp%3A%2F%2Ftracker.openbittorrent.com%3A80","udp%3A%2F%2Fopen.demonii.com%3A1337","udp%3A%2F%2Ftracker.coppersurfer.tk%3A6969","udp%3A%2F%2Fexodus.desync.com%3A6969"],"infoHash":"f40a7298484a4e83cb5bb981e39d4c31287676cf","infoHashBuffer":{"type":"Buffer","data":[244,10,114,152,72,74,78,131,203,91,185,129,227,157,76,49,40,118,118,207]},"announce":[],"urlList":[]}}